<?xml version="1.0" encoding="UTF-8" standalone="no"?>
<!DOCTYPE svg PUBLIC "-//W3C//DTD SVG 1.1//EN" "http://www.w3.org/Graphics/SVG/1.1/DTD/svg11.dtd">
<svg width="100%" height="100%" viewBox="0 0 1128 1128" version="1.1" xmlns="http://www.w3.org/2000/svg" xmlns:xlink="http://www.w3.org/1999/xlink" xml:space="preserve" xmlns:serif="http://www.serif.com/" style="fill-rule:evenodd;clip-rule:evenodd;stroke-linejoin:round;stroke-miterlimit:2;">
    <g id="Layer-2" serif:id="Layer 2">
    </g>
    <g id="Artboard1" transform="matrix(1.27342,0,0,1.08748,2253.91,407.881)">
        <rect x="-1769.97" y="-375.069" width="885.802" height="1037.26" style="fill:none;"/>
        <g transform="matrix(0.384001,0,0,0.449659,-1733.17,-355.965)">
            <g id="Layer-21" serif:id="Layer 2" transform="matrix(1,0,0,1,-9.09327,44.2332)">
                <path d="M1990.12,1260.18C2012.97,1398.75 1989.8,1555.14 1908.21,1732.68L1908.21,1732.68C1732.34,2115.41 1177.83,2216.34 704.91,1974.81C232.142,1733.37 58.221,1178.72 165.435,856.758C176.522,814.718 192.101,773.62 212.377,733.918C253.619,653.161 310.937,584.763 380.215,529.552L380.215,328.214C389.119,314.465 408.978,300.086 431.797,288.497C518.784,232.389 685.446,145.053 714.511,148.953L1007.65,316.044C1006.28,260.265 1009.62,205.253 1024.35,175.516C1056.53,110.571 1173.83,47.139 1241.26,45.371C1298.97,43.779 1359.03,85.744 1416.95,126.247C1450.83,149.944 1492.99,179.431 1514.47,182.976C1522.17,184.249 1531.74,184.851 1541.32,184.869C1557.68,184.893 1570.2,170.133 1567.28,154.035C1564.11,136.623 1559.31,116.532 1553.7,98.403C1544.82,69.758 1560.83,39.322 1589.47,30.426C1618.12,21.544 1648.54,37.517 1657.45,66.152C1657.84,67.393 1666.97,96.903 1673.37,130.361C1684.73,189.725 1681.06,227.418 1661.48,252.568C1643.87,275.182 1614.33,288.137 1571.16,292.182C1541.86,294.922 1513.51,292.946 1496.76,290.178C1450.94,282.611 1404.18,249.907 1354.68,215.282C1319.72,190.835 1267.02,153.98 1244.62,153.98C1244.44,153.98 1244.27,153.98 1244.1,153.984C1212.51,154.813 1133.57,199.805 1121.71,223.752C1114.61,240.628 1114.38,306.506 1120.17,380.182L1138.65,390.717C1231.48,411.875 1324.8,445.368 1415.69,491.786C1751.55,663.312 1963.89,965.198 1990.12,1260.18Z" style="fill:rgb(241,90,41);"/>
                <path d="M1463.64,46.62C1475.71,-1.188 1511.65,-41.763 1562.16,-57.456L1562.22,-57.475C1639.39,-81.389 1721.24,-38.361 1745.29,38.707C1745.8,40.367 1756.37,74.443 1763.76,113.068C1782.1,208.926 1765.71,268.491 1734.09,309.102C1703.48,348.421 1654.8,376.773 1579.75,383.806L1579.73,383.808C1541.14,387.416 1503.82,384.617 1481.76,380.972C1424.35,371.49 1363.95,334.068 1301.95,290.699C1286.79,280.1 1258.23,262.359 1241.31,251.97L1209.32,269.557C1209.18,281.018 1209.12,296.545 1209.38,313.565C1292.7,336.251 1376.03,368.203 1457.54,409.83C1823.24,596.596 2051.5,927.35 2081.47,1248.61L2081.47,1248.63C2105.98,1401.91 2081.9,1575.09 1991.83,1771.11C1991.7,1771.39 1991.57,1771.67 1991.44,1771.95C1796.27,2195.07 1186.37,2324.03 663.055,2056.76C146.043,1792.73 -38.46,1183.93 77.194,830.5C89.891,783.138 107.559,736.828 130.421,692.063C170.661,613.269 224.188,544.687 288.19,486.978L288.19,328.214C288.19,310.462 293.324,293.09 302.973,278.19C317.823,255.26 348.129,228.66 385.609,208.792C460.697,160.818 586.976,93.554 650.573,70.198C685.741,57.282 713.195,55.926 726.749,57.745C738.481,59.319 749.799,63.142 760.083,69.004C760.083,69.004 930.331,166.046 930.331,166.046C933.635,154.135 937.489,143.551 941.894,134.66C964.539,88.954 1014.66,41.178 1073.46,7.12C1129.94,-25.595 1193.12,-45.395 1238.74,-46.62C1311.52,-48.621 1390.28,-4.147 1463.64,46.62ZM1863.17,1812.93C1880.13,1787.74 1895.21,1760.98 1908.21,1732.68L1908.21,1732.68C1989.8,1555.14 2012.97,1398.75 1990.12,1260.18C1963.89,965.198 1751.55,663.312 1415.69,491.786C1324.8,445.368 1231.48,411.875 1138.65,390.717L1120.17,380.182C1114.38,306.506 1114.61,240.628 1121.71,223.752C1133.57,199.805 1212.51,154.813 1244.1,153.984C1244.27,153.98 1244.44,153.98 1244.62,153.98C1267.02,153.98 1319.72,190.835 1354.68,215.282C1404.18,249.907 1450.94,282.611 1496.76,290.178C1513.51,292.946 1541.86,294.922 1571.16,292.182C1614.33,288.137 1643.87,275.182 1661.48,252.568C1681.06,227.418 1684.73,189.725 1673.37,130.361C1666.97,96.903 1657.84,67.393 1657.45,66.152C1648.54,37.517 1618.12,21.544 1589.47,30.426C1560.83,39.322 1544.82,69.758 1553.7,98.403C1559.31,116.532 1564.11,136.623 1567.28,154.035C1570.2,170.133 1557.68,184.893 1541.32,184.869C1531.74,184.851 1522.17,184.249 1514.47,182.976C1492.99,179.431 1450.83,149.944 1416.95,126.247C1359.03,85.744 1298.97,43.779 1241.26,45.371C1173.83,47.139 1056.53,110.571 1024.35,175.516C1009.62,205.253 1006.28,260.265 1007.65,316.044L714.511,148.953C685.446,145.053 518.784,232.389 431.797,288.497C408.978,300.086 389.119,314.465 380.215,328.214L380.215,529.552C310.937,584.763 253.619,653.161 212.377,733.918C192.101,773.62 176.522,814.718 165.435,856.758C58.221,1178.72 232.142,1733.37 704.91,1974.81C1142.86,2198.48 1650.79,2128.46 1863.17,1812.93ZM1863.17,1812.93C1870.28,1816.92 1877.92,1819.97 1885.89,1821.96C1877.92,1819.97 1870.28,1816.92 1863.17,1812.93Z"/>
            </g>
            <g transform="matrix(1,0,0,1,-9.09327,44.2332)">
                <path d="M1908.21,1732.68C1732.34,2115.41 1177.83,2216.34 704.91,1974.81C231.98,1733.29 58.102,1178.34 165.545,856.427C298.304,458.644 925.987,374.385 1398.91,615.911C1871.84,857.436 2153.06,1199.84 1908.21,1732.68" style="fill:rgb(241,90,41);fill-rule:nonzero;"/>
                <path d="M1924.99,1608.56C1733.34,1983.81 1194.6,2092.22 721.68,1850.69C248.756,1609.17 20.731,1109.17 212.377,733.918C404.018,358.666 942.758,250.26 1415.69,491.786C1888.61,733.312 2116.63,1233.31 1924.99,1608.56" style="fill:rgb(247,148,29);fill-rule:nonzero;"/>
                <path d="M574.009,812.705L380.215,328.219C401.14,295.908 676.36,143.834 714.511,148.953L1683.48,701.273C1717.36,738.619 1757.84,835.597 1765.85,885.379L1765.85,1500.68C1748.07,1534.61 1484.39,1703.86 1446.09,1704.16C1446.09,1704.16 830.512,1204.94 641.837,982.274C612.322,947.441 580.312,857.929 574.009,812.705" style="fill:rgb(88,89,91);fill-rule:nonzero;"/>
                <path d="M1489.69,817.551L1660.12,715.292C1672.55,707.836 1688.7,712.918 1694.61,726.141L1765.85,885.379L1572.05,1001.65L1489.69,817.551Z" style="fill:rgb(88,89,91);fill-rule:nonzero;"/>
                <path d="M1572.05,1616.95L1765.85,1500.67L1765.85,885.37L1572.05,1001.65L1572.05,1616.95Z" style="fill:rgb(109,110,113);fill-rule:nonzero;"/>
                <path d="M1489.69,817.551L520.718,265.236L714.511,148.953L1676.94,697.547C1679.87,699.213 1679.92,703.411 1677.03,705.147L1489.69,817.551Z" style="fill:rgb(65,64,66);fill-rule:nonzero;"/>
                <path d="M380.215,928.983L380.215,328.214C401.14,295.904 482.566,260.112 520.718,265.236L1489.69,817.551C1523.57,854.897 1564.05,951.875 1572.05,1001.66L1572.05,1616.95C1554.27,1650.88 1484.39,1703.86 1446.09,1704.17C1446.09,1704.17 636.718,1321.22 448.043,1098.55C418.524,1063.72 386.519,974.202 380.215,928.983" style="fill-rule:nonzero;"/>
                <path d="M636.996,991.966C630.937,967.264 636.996,890.225 636.996,890.225C636.996,890.225 557.768,850.097 540.097,827.238C526.04,809.058 514.71,762.714 511.031,740.031C507.731,719.708 460.614,694.02 472.268,677.048C481.821,663.144 557.175,632.375 574.013,633.444C591.86,634.578 636.996,667.356 636.996,667.356C636.996,667.356 581.108,606.97 598.238,589.841C615.368,572.711 712.095,559.895 733.895,570.462C760.281,583.245 796.952,634.814 806.565,662.515C816.298,690.544 806.565,781.214 806.565,781.214C806.565,781.214 888.199,811.974 908.31,832.084C923.629,847.404 942.087,888.513 947.067,909.604C953.191,935.537 961.6,1001.65 908.31,1035.57C895.026,1044.03 899.599,1018.88 884.085,1016.19C866.344,1013.12 816.256,991.966 816.256,991.966C816.256,991.966 835.955,1083.7 816.256,1103.4C794.846,1124.81 777.499,1122.78 777.499,1122.78C750.626,1106.49 644.48,1022.49 636.996,991.966" style="fill:rgb(167,169,172);fill-rule:nonzero;"/>
                <path d="M1058.5,1171.23C1069.31,1142.56 1146.11,1121.63 1174.78,1132.47C1215.39,1147.83 1272.52,1240.54 1261.98,1282.66C1254.72,1311.68 1189.27,1352.88 1160.24,1345.65C1111.26,1333.44 1040.69,1218.47 1058.5,1171.23" style="fill:rgb(191,167,17);fill-rule:nonzero;"/>
                <path d="M1203.85,965.32C1215.33,932.602 1302.35,906.716 1334.66,919.291C1373.04,934.227 1422.44,1024.75 1412.18,1064.64C1404.43,1094.73 1338.36,1139.19 1308.01,1132.46C1259.94,1121.81 1187.54,1011.77 1203.85,965.32" style="fill:rgb(190,30,45);fill-rule:nonzero;"/>
                <path d="M598.233,1011.34C592.175,986.639 598.233,909.6 598.233,909.6C598.233,909.6 519.005,869.472 501.334,846.613C487.278,828.433 475.948,782.089 472.264,759.406C468.968,739.082 460.609,694.016 472.264,677.044C481.817,663.14 518.413,651.75 535.251,652.819C553.098,653.953 598.233,686.736 598.233,686.736C598.233,686.736 581.104,606.966 598.233,589.837C615.363,572.707 673.333,579.27 695.132,589.837C721.514,602.62 758.189,654.189 767.802,681.89C777.536,709.919 767.802,800.589 767.802,800.589C767.802,800.589 849.437,831.349 869.547,851.459C884.867,866.783 903.325,907.888 908.305,928.979C914.424,954.912 927.147,1016.72 908.305,1035.57C897.169,1046.7 860.837,1038.25 845.322,1035.57C827.577,1032.49 777.494,1011.34 777.494,1011.34C777.494,1011.34 797.192,1103.07 777.494,1122.77C756.079,1144.18 682.266,1138.47 656.37,1122.77C629.498,1106.49 605.713,1041.86 598.233,1011.34" style="fill:rgb(230,231,232);fill-rule:nonzero;"/>
                <path d="M1019.74,1190.61C1030.55,1161.94 1107.36,1141.01 1136.02,1151.85C1176.63,1167.2 1233.76,1259.92 1223.23,1302.04C1215.96,1331.06 1150.51,1372.25 1121.48,1365.03C1072.5,1352.82 1001.94,1237.84 1019.74,1190.61" style="fill:rgb(255,222,23);fill-rule:nonzero;"/>
                <path d="M1165.09,984.699C1176.57,951.99 1263.6,926.095 1295.9,938.675C1334.28,953.615 1383.68,1044.14 1373.42,1084.02C1365.68,1114.11 1299.6,1158.57 1269.26,1151.85C1221.18,1141.19 1148.78,1031.16 1165.09,984.699" style="fill:rgb(237,28,36);fill-rule:nonzero;"/>
                <path d="M1072.96,508.21C1045.95,508.21 1022.55,488.091 1019.12,460.599C1010.91,394.64 994.968,234.819 1024.35,175.516C1056.53,110.571 1173.83,47.139 1241.26,45.371C1298.97,43.779 1359.03,85.744 1416.95,126.247C1450.83,149.944 1492.99,179.431 1514.47,182.976C1522.17,184.249 1531.74,184.851 1541.32,184.869C1557.68,184.893 1570.2,170.133 1567.28,154.035C1564.11,136.623 1559.31,116.532 1553.7,98.403C1544.82,69.758 1560.83,39.322 1589.47,30.426C1618.12,21.544 1648.54,37.517 1657.45,66.152C1657.84,67.393 1666.97,96.903 1673.37,130.361C1684.73,189.725 1681.06,227.418 1661.48,252.568C1643.87,275.182 1614.33,288.137 1571.16,292.182C1541.86,294.922 1513.51,292.946 1496.76,290.178C1450.94,282.611 1404.18,249.907 1354.68,215.282C1319.72,190.835 1267.02,153.98 1244.62,153.98C1244.44,153.98 1244.27,153.98 1244.1,153.984C1212.51,154.813 1133.57,199.805 1121.71,223.752C1112.54,245.552 1114.84,349.116 1126.75,445.635C1130.39,475.09 1110.59,503.156 1081.24,507.586C1078.46,508.002 1075.69,508.21 1072.96,508.21" style="fill:rgb(128,128,128);fill-rule:nonzero;stroke:black;stroke-width:30.68px;"/>
            </g>
        </g>
    </g>
</svg>
