<?xml version="1.0" encoding="UTF-8" standalone="no"?>
<!DOCTYPE svg PUBLIC "-//W3C//DTD SVG 1.1//EN" "http://www.w3.org/Graphics/SVG/1.1/DTD/svg11.dtd">
<svg width="100%" height="100%" viewBox="0 0 2134 2134" version="1.1" xmlns="http://www.w3.org/2000/svg" xmlns:xlink="http://www.w3.org/1999/xlink" xml:space="preserve" xmlns:serif="http://www.serif.com/" style="fill-rule:evenodd;clip-rule:evenodd;stroke-linejoin:round;stroke-miterlimit:2;">
    <path id="Layer-2" serif:id="Layer 2" d="M1990.12,1260.18C2012.97,1398.75 1989.8,1555.14 1908.21,1732.68L1908.21,1732.68C1732.34,2115.41 1177.83,2216.34 704.91,1974.81C232.142,1733.37 58.221,1178.72 165.435,856.758C176.522,814.718 192.101,773.62 212.377,733.918C253.619,653.161 310.937,584.763 380.215,529.552L380.215,328.214C389.119,314.465 408.978,300.086 431.797,288.497C518.784,232.389 685.446,145.053 714.511,148.953L1007.65,316.044C1006.28,260.265 1009.62,205.253 1024.35,175.516C1056.53,110.571 1173.83,47.139 1241.26,45.371C1298.97,43.779 1359.03,85.744 1416.95,126.247C1450.83,149.944 1492.99,179.431 1514.47,182.976C1522.17,184.249 1531.74,184.851 1541.32,184.869C1557.68,184.893 1570.2,170.133 1567.28,154.035C1564.11,136.623 1559.31,116.532 1553.7,98.403C1544.82,69.758 1560.83,39.322 1589.47,30.426C1618.12,21.544 1648.54,37.517 1657.45,66.152C1657.84,67.393 1666.97,96.903 1673.37,130.361C1684.73,189.725 1681.06,227.418 1661.48,252.568C1643.87,275.182 1614.33,288.137 1571.16,292.182C1541.86,294.922 1513.51,292.946 1496.76,290.178C1450.94,282.611 1404.18,249.907 1354.68,215.282C1319.72,190.835 1267.02,153.98 1244.62,153.98C1244.44,153.98 1244.27,153.98 1244.1,153.984C1212.51,154.813 1133.57,199.805 1121.71,223.752C1114.61,240.628 1114.38,306.506 1120.17,380.182L1138.65,390.717C1231.48,411.875 1324.8,445.368 1415.69,491.786C1751.55,663.312 1963.89,965.198 1990.12,1260.18Z" style="fill:rgb(241,90,41);stroke:black;stroke-width:49px;"/>
    <g id="Layer-21" serif:id="Layer 2">
        <g>
            <path d="M1908.21,1732.68C1732.34,2115.41 1177.83,2216.34 704.91,1974.81C231.98,1733.29 58.102,1178.34 165.545,856.427C298.304,458.644 925.987,374.385 1398.91,615.911C1871.84,857.436 2153.06,1199.84 1908.21,1732.68" style="fill:rgb(241,90,41);fill-rule:nonzero;"/>
            <path d="M1924.99,1608.56C1733.34,1983.81 1194.6,2092.22 721.68,1850.69C248.756,1609.17 20.731,1109.17 212.377,733.918C404.018,358.666 942.758,250.26 1415.69,491.786C1888.61,733.312 2116.63,1233.31 1924.99,1608.56" style="fill:rgb(247,148,29);fill-rule:nonzero;"/>
            <path d="M574.009,812.705L380.215,328.219C401.14,295.908 676.36,143.834 714.511,148.953L1683.48,701.273C1717.36,738.619 1757.84,835.597 1765.85,885.379L1765.85,1500.68C1748.07,1534.61 1484.39,1703.86 1446.09,1704.16C1446.09,1704.16 830.512,1204.94 641.837,982.274C612.322,947.441 580.312,857.929 574.009,812.705" style="fill:rgb(88,89,91);fill-rule:nonzero;"/>
            <path d="M1489.69,817.551L1660.12,715.292C1672.55,707.836 1688.7,712.918 1694.61,726.141L1765.85,885.379L1572.05,1001.65L1489.69,817.551Z" style="fill:rgb(88,89,91);fill-rule:nonzero;"/>
            <path d="M1572.05,1616.95L1765.85,1500.67L1765.85,885.37L1572.05,1001.65L1572.05,1616.95Z" style="fill:rgb(109,110,113);fill-rule:nonzero;"/>
            <path d="M1489.69,817.551L520.718,265.236L714.511,148.953L1676.94,697.547C1679.87,699.213 1679.92,703.411 1677.03,705.147L1489.69,817.551Z" style="fill:rgb(65,64,66);fill-rule:nonzero;"/>
            <path d="M380.215,928.983L380.215,328.214C401.14,295.904 482.566,260.112 520.718,265.236L1489.69,817.551C1523.57,854.897 1564.05,951.875 1572.05,1001.66L1572.05,1616.95C1554.27,1650.88 1484.39,1703.86 1446.09,1704.17C1446.09,1704.17 636.718,1321.22 448.043,1098.55C418.524,1063.72 386.519,974.202 380.215,928.983" style="fill-rule:nonzero;"/>
            <path d="M636.996,991.966C630.937,967.264 636.996,890.225 636.996,890.225C636.996,890.225 557.768,850.097 540.097,827.238C526.04,809.058 514.71,762.714 511.031,740.031C507.731,719.708 460.614,694.02 472.268,677.048C481.821,663.144 557.175,632.375 574.013,633.444C591.86,634.578 636.996,667.356 636.996,667.356C636.996,667.356 581.108,606.97 598.238,589.841C615.368,572.711 712.095,559.895 733.895,570.462C760.281,583.245 796.952,634.814 806.565,662.515C816.298,690.544 806.565,781.214 806.565,781.214C806.565,781.214 888.199,811.974 908.31,832.084C923.629,847.404 942.087,888.513 947.067,909.604C953.191,935.537 961.6,1001.65 908.31,1035.57C895.026,1044.03 899.599,1018.88 884.085,1016.19C866.344,1013.12 816.256,991.966 816.256,991.966C816.256,991.966 835.955,1083.7 816.256,1103.4C794.846,1124.81 777.499,1122.78 777.499,1122.78C750.626,1106.49 644.48,1022.49 636.996,991.966" style="fill:rgb(167,169,172);fill-rule:nonzero;"/>
            <path d="M1058.5,1171.23C1069.31,1142.56 1146.11,1121.63 1174.78,1132.47C1215.39,1147.83 1272.52,1240.54 1261.98,1282.66C1254.72,1311.68 1189.27,1352.88 1160.24,1345.65C1111.26,1333.44 1040.69,1218.47 1058.5,1171.23" style="fill:rgb(191,167,17);fill-rule:nonzero;"/>
            <path d="M1203.85,965.32C1215.33,932.602 1302.35,906.716 1334.66,919.291C1373.04,934.227 1422.44,1024.75 1412.18,1064.64C1404.43,1094.73 1338.36,1139.19 1308.01,1132.46C1259.94,1121.81 1187.54,1011.77 1203.85,965.32" style="fill:rgb(190,30,45);fill-rule:nonzero;"/>
            <path d="M598.233,1011.34C592.175,986.639 598.233,909.6 598.233,909.6C598.233,909.6 519.005,869.472 501.334,846.613C487.278,828.433 475.948,782.089 472.264,759.406C468.968,739.082 460.609,694.016 472.264,677.044C481.817,663.14 518.413,651.75 535.251,652.819C553.098,653.953 598.233,686.736 598.233,686.736C598.233,686.736 581.104,606.966 598.233,589.837C615.363,572.707 673.333,579.27 695.132,589.837C721.514,602.62 758.189,654.189 767.802,681.89C777.536,709.919 767.802,800.589 767.802,800.589C767.802,800.589 849.437,831.349 869.547,851.459C884.867,866.783 903.325,907.888 908.305,928.979C914.424,954.912 927.147,1016.72 908.305,1035.57C897.169,1046.7 860.837,1038.25 845.322,1035.57C827.577,1032.49 777.494,1011.34 777.494,1011.34C777.494,1011.34 797.192,1103.07 777.494,1122.77C756.079,1144.18 682.266,1138.47 656.37,1122.77C629.498,1106.49 605.713,1041.86 598.233,1011.34" style="fill:rgb(230,231,232);fill-rule:nonzero;"/>
            <path d="M1019.74,1190.61C1030.55,1161.94 1107.36,1141.01 1136.02,1151.85C1176.63,1167.2 1233.76,1259.92 1223.23,1302.04C1215.96,1331.06 1150.51,1372.25 1121.48,1365.03C1072.5,1352.82 1001.94,1237.84 1019.74,1190.61" style="fill:rgb(255,222,23);fill-rule:nonzero;"/>
            <path d="M1165.09,984.699C1176.57,951.99 1263.6,926.095 1295.9,938.675C1334.28,953.615 1383.68,1044.14 1373.42,1084.02C1365.68,1114.11 1299.6,1158.57 1269.26,1151.85C1221.18,1141.19 1148.78,1031.16 1165.09,984.699" style="fill:rgb(237,28,36);fill-rule:nonzero;"/>
            <path d="M1072.96,508.21C1045.95,508.21 1022.55,488.091 1019.12,460.599C1010.91,394.64 994.968,234.819 1024.35,175.516C1056.53,110.571 1173.83,47.139 1241.26,45.371C1298.97,43.779 1359.03,85.744 1416.95,126.247C1450.83,149.944 1492.99,179.431 1514.47,182.976C1522.17,184.249 1531.74,184.851 1541.32,184.869C1557.68,184.893 1570.2,170.133 1567.28,154.035C1564.11,136.623 1559.31,116.532 1553.7,98.403C1544.82,69.758 1560.83,39.322 1589.47,30.426C1618.12,21.544 1648.54,37.517 1657.45,66.152C1657.84,67.393 1666.97,96.903 1673.37,130.361C1684.73,189.725 1681.06,227.418 1661.48,252.568C1643.87,275.182 1614.33,288.137 1571.16,292.182C1541.86,294.922 1513.51,292.946 1496.76,290.178C1450.94,282.611 1404.18,249.907 1354.68,215.282C1319.72,190.835 1267.02,153.98 1244.62,153.98C1244.44,153.98 1244.27,153.98 1244.1,153.984C1212.51,154.813 1133.57,199.805 1121.71,223.752C1112.54,245.552 1114.84,349.116 1126.75,445.635C1130.39,475.09 1110.59,503.156 1081.24,507.586C1078.46,508.002 1075.69,508.21 1072.96,508.21" style="fill:rgb(128,128,128);fill-rule:nonzero;stroke:black;stroke-width:15px;"/>
        </g>
    </g>
</svg>
