<?xml version="1.0" encoding="UTF-8" standalone="no"?><!DOCTYPE svg PUBLIC "-//W3C//DTD SVG 1.1//EN" "http://www.w3.org/Graphics/SVG/1.1/DTD/svg11.dtd"><svg width="100%" height="100%" viewBox="0 0 1067 1067" version="1.1" xmlns="http://www.w3.org/2000/svg" xmlns:xlink="http://www.w3.org/1999/xlink" xml:space="preserve" xmlns:serif="http://www.serif.com/" style="fill-rule:evenodd;clip-rule:evenodd;stroke-linecap:round;stroke-linejoin:round;stroke-miterlimit:1.5;"><g id="face-with-border-inline" serif:id="face with border inline"><path d="M14.067,189.883c-0,-97.037 78.779,-175.816 175.816,-175.816l686.9,-0c97.038,-0 175.817,78.779 175.817,175.816l0,686.9c0,97.038 -78.779,175.817 -175.817,175.817l-686.9,0c-97.037,0 -175.816,-78.779 -175.816,-175.817l-0,-686.9Z" style="fill:#ff7e79;stroke:#000;stroke-width:17.38px;"/><path d="M189.883,14.067l377.117,-0c18.667,117.216 74.817,480.066 68.617,565.487c-2.888,39.763 -119.059,11.438 -119.059,11.438l-4.525,461.608l-322.15,0c-97.037,0 -175.816,-78.779 -175.816,-175.817l-0,-686.9c-0,-97.037 78.779,-175.816 175.816,-175.816Z" style="fill:#ffd479;stroke:#000;stroke-width:17.38px;"/></g><g id="face"><g id="eyes"><g id="open-eye" serif:id="open eye"><path d="M383.342,188.25c92.287,9.188 157.85,110.717 146.316,226.579c-11.533,115.867 -95.825,202.479 -188.112,193.292c-92.288,-9.188 -157.85,-110.713 -146.317,-226.579c11.534,-115.867 95.825,-202.475 188.113,-193.292Z" style="fill:#fff;stroke:#000;stroke-width:17.38px;"/><circle cx="426.042" cy="440.921" r="42.733" style="stroke:#000;stroke-width:17.38px;"/><circle cx="417.346" cy="419.554" r="21.367" style="fill:#fff;"/></g><path d="M908.929,405.404c-80.925,-18.508 -228.183,0 -228.183,0" style="fill:none;stroke:#000;stroke-width:17.38px;"/><path d="M680.746,399.321l103.383,-34.346" style="fill:none;stroke:#000;stroke-width:17.38px;"/><path d="M680.746,411.488l103.383,17.679" style="fill:none;stroke:#000;stroke-width:17.38px;"/></g><path d="M198.713,702.754c-0,0 287.933,321.209 632.362,0.5" style="fill:none;stroke:#000;stroke-width:17.38px;"/></g></svg>