<?xml version="1.0" encoding="UTF-8" standalone="no"?>
<!DOCTYPE svg PUBLIC "-//W3C//DTD SVG 1.1//EN" "http://www.w3.org/Graphics/SVG/1.1/DTD/svg11.dtd">
<svg width="100%" height="100%" viewBox="0 0 1128 1128" version="1.1" xmlns="http://www.w3.org/2000/svg" xmlns:xlink="http://www.w3.org/1999/xlink" xml:space="preserve" xmlns:serif="http://www.serif.com/" style="fill-rule:evenodd;clip-rule:evenodd;stroke-linecap:round;stroke-linejoin:round;stroke-miterlimit:1.5;">
    <g id="Artboard1" transform="matrix(5.5037,0,0,5.75799,-6374.37,-1941.31)">
        <rect x="1158.2" y="337.15" width="204.953" height="195.902" style="fill:none;"/>
        <g transform="matrix(0.18273,0,0,0.17466,1159.59,338.77)">
            <g transform="matrix(1,0,0,1,19.8662,18.2038)">
                <path d="M876.783,1052.6L189.883,1052.6C92.846,1052.6 14.067,973.821 14.067,876.783L14.067,189.883C14.067,92.846 92.846,14.067 189.883,14.067L876.783,14.067C973.821,14.067 1052.6,92.846 1052.6,189.883L1052.6,876.783C1052.6,973.821 973.821,1052.6 876.783,1052.6Z" style="fill:rgb(255,126,121);stroke:black;stroke-width:62.1px;"/>
            </g>
            <g transform="matrix(1,0,0,1,19.8662,18.2038)">
                <g id="face-with-border-inline" serif:id="face with border inline">
                    <path d="M14.067,189.883C14.067,92.846 92.846,14.067 189.883,14.067L876.783,14.067C973.821,14.067 1052.6,92.846 1052.6,189.883L1052.6,876.783C1052.6,973.821 973.821,1052.6 876.783,1052.6L189.883,1052.6C92.846,1052.6 14.067,973.821 14.067,876.783L14.067,189.883Z" style="fill:rgb(255,126,121);"/>
                    <path d="M14.067,189.883C14.067,92.846 92.846,14.067 189.883,14.067L876.783,14.067C973.821,14.067 1052.6,92.846 1052.6,189.883L1052.6,876.783C1052.6,973.821 973.821,1052.6 876.783,1052.6L189.883,1052.6C92.846,1052.6 14.067,973.821 14.067,876.783L14.067,189.883ZM31.447,189.883L31.447,876.783C31.447,964.228 102.438,1035.22 189.883,1035.22L876.783,1035.22C964.229,1035.22 1035.22,964.229 1035.22,876.783L1035.22,189.883C1035.22,102.438 964.228,31.447 876.783,31.447L189.883,31.447C102.438,31.447 31.447,102.438 31.447,189.883Z"/>
                    <path d="M189.883,14.067L567,14.067C585.667,131.283 641.817,494.133 635.617,579.554C632.729,619.317 516.558,590.992 516.558,590.992L512.033,1052.6L189.883,1052.6C92.846,1052.6 14.067,973.821 14.067,876.783L14.067,189.883C14.067,92.846 92.846,14.067 189.883,14.067Z" style="fill:rgb(255,212,121);stroke:black;stroke-width:30px;"/>
                </g>
                <g id="face">
                    <g id="eyes">
                        <g id="open-eye" serif:id="open eye">
                            <path d="M383.342,188.25C475.629,197.438 541.192,298.967 529.658,414.829C518.125,530.696 433.833,617.308 341.546,608.121C249.258,598.933 183.696,497.408 195.229,381.542C206.763,265.675 291.054,179.067 383.342,188.25Z" style="fill:white;stroke:black;stroke-width:23px;"/>
                            <circle cx="426.042" cy="440.921" r="42.733" style="stroke:black;stroke-width:17.38px;"/>
                            <circle cx="417.346" cy="419.554" r="21.367" style="fill:white;"/>
                        </g>
                        <path d="M908.929,405.404C828.004,386.896 680.746,405.404 680.746,405.404" style="fill:none;stroke:black;stroke-width:25px;"/>
                        <path d="M680.746,399.321L784.129,364.975" style="fill:none;stroke:black;stroke-width:25px;"/>
                        <path d="M680.746,411.488L784.129,429.167" style="fill:none;stroke:black;stroke-width:25px;"/>
                    </g>
                    <path d="M198.713,702.754C198.713,702.754 486.646,1023.96 831.075,703.254" style="fill:none;stroke:black;stroke-width:30px;"/>
                </g>
            </g>
        </g>
    </g>
</svg>
